<svg width="104" height="103" viewBox="0 0 104 103" fill="none" xmlns="http://www.w3.org/2000/svg">
<g opacity="0.05" clip-path="url(#clip0_1540_2784)">
<path d="M0 28.5395C1.12914 25.8047 3.39777 23.9297 5.18988 21.7025C7.27205 19.1127 9.47853 16.6369 11.6125 14.0989C13.9433 11.3331 16.937 11.3227 19.2885 14.0989C22.7174 18.139 26.1462 22.1686 29.5647 26.219C31.3465 28.3323 31.3568 31.0256 29.6372 32.8903C28.7878 33.8018 28.0005 34.123 25.794 34.4337V38.9089C25.794 38.9089 41.1047 36.3191 41.1461 36.3087V22.3551C40.5971 22.2929 40.0999 22.2826 39.6234 22.1686C36.1324 21.3192 34.8893 17.217 37.2718 14.3372C39.0432 12.1929 40.8664 10.09 42.6689 7.96638C44.4299 5.89457 46.1806 3.82277 47.952 1.76132C49.9824 -0.600547 53.0694 -0.600547 55.0998 1.77167C58.6529 5.92565 62.1957 10.09 65.7074 14.275C68.1418 17.1859 66.8987 21.371 63.387 22.179C62.9105 22.2929 62.4029 22.2929 61.8849 22.3551V36.4434C67.3234 35.3868 72.3994 36.2155 77.2163 39.0539V34.3716C75.1652 34.3405 73.5182 33.6257 72.6169 31.699C71.7364 29.8136 71.9747 28.0111 73.2903 26.4366C76.8848 22.1376 80.5105 17.8696 84.1569 13.6328C86.0215 11.4677 89.15 11.4574 91.0353 13.6535C94.6713 17.8696 98.2556 22.1272 101.84 26.3848C103.135 27.9283 103.414 29.6893 102.627 31.5539C101.85 33.3771 100.39 34.2266 98.4524 34.3509C98.3177 34.3509 98.1934 34.382 97.9241 34.413C97.9241 34.8481 97.9241 35.2625 97.9241 35.6872C97.9241 46.4813 97.9241 57.2858 97.9241 68.0799C97.9241 71.0841 96.4116 73.1144 93.7701 73.7049C93.3454 73.7981 92.9103 73.7981 92.4752 73.7981C90.1237 73.7981 87.7826 73.7774 85.4311 73.8292C85.0996 73.8292 84.6023 74.1296 84.4884 74.4197C79.2363 87.0266 69.6853 95.2724 57.6067 100.96C56.0114 101.705 54.3643 102.317 52.7379 103H50.3242C50.3242 103 50.2517 102.876 50.1999 102.855C46.8954 101.332 43.4458 100.048 40.2967 98.2558C30.5385 92.7034 22.9453 85.0791 18.6566 74.5025C18.4184 73.9224 18.0869 73.7981 17.5275 73.7981C15.176 73.8188 12.8349 73.8188 10.4834 73.7981C10.0483 73.7981 9.61319 73.767 9.18847 73.6738C6.57799 73.0523 5.12773 71.0633 5.12773 68.0903C5.12773 57.2962 5.12773 46.4917 5.12773 35.6975C5.12773 35.2728 5.12773 34.8481 5.12773 34.3612C2.36186 34.3716 0.776928 32.9835 0.010359 30.5387V28.5291L0 28.5395ZM18.9053 58.8811C19.0399 65.573 20.8113 72.6379 24.8099 79.0605C30.9632 88.9327 39.9445 95.2413 50.6557 99.3332C51.2151 99.5507 51.9921 99.4678 52.5825 99.2607C56.7261 97.7793 60.6211 95.7697 64.2675 93.3042C73.6839 86.9334 80.4069 78.584 83.0174 67.3134C84.0429 62.8901 84.7266 58.3839 83.7218 53.8777C82.168 46.9268 77.9208 42.2134 71.0838 40.2348C64.2986 38.2666 58.3214 40.0898 53.318 45.0414C51.8781 46.4606 51.153 46.4813 49.7234 45.0414C45.4348 40.701 40.1931 38.7535 34.1849 39.7272C24.9653 41.2086 18.8431 48.7292 18.9053 58.9018V58.8811ZM85.9076 70.3693C88.0519 70.3693 90.0926 70.3693 92.1437 70.3693C93.8633 70.3693 94.4123 69.7995 94.4123 68.0696C94.4123 60.2588 94.4123 52.4481 94.4123 44.6374C94.4123 40.7838 94.4123 36.9303 94.4123 33.0664C94.4123 31.5021 95.0339 30.8806 96.5981 30.8495C97.1989 30.8392 97.8101 30.8495 98.4109 30.8392C99.2707 30.8081 99.6229 30.228 99.5401 29.4925C99.4986 29.0678 99.1775 28.6327 98.8875 28.2908C95.5208 24.2922 92.1334 20.304 88.7459 16.3261C87.7411 15.1348 87.4096 15.1348 86.4048 16.3261C83.7115 19.496 81.0285 22.6659 78.3351 25.8357C77.5582 26.7577 76.6984 27.6279 76.025 28.6223C75.735 29.047 75.6728 29.7722 75.8179 30.2694C75.9111 30.5595 76.6051 30.7459 77.0506 30.8392C77.5375 30.9324 78.0554 30.8495 78.5527 30.8599C80.1169 30.891 80.6866 31.4607 80.6866 32.9938C80.6866 35.6458 80.6659 38.2873 80.7177 40.9392C80.7177 41.4054 80.9974 41.9233 81.2771 42.3273C82.5305 44.1402 84.0222 45.808 85.0892 47.7244C88.0933 53.1318 87.9172 58.9743 87.0056 64.8583C86.7259 66.6711 86.2909 68.4529 85.8972 70.4004L85.9076 70.3693ZM17.1339 70.3693C17.0821 70.0378 17.0717 69.8306 17.0199 69.6441C16.0565 66.0392 15.5386 62.3721 15.4557 58.6428C15.3107 52.2927 17.4343 46.8439 21.7954 42.2341C22.0958 41.913 22.2927 41.3743 22.303 40.9289C22.3548 38.681 22.3237 36.433 22.3237 34.1851C22.3237 30.9842 22.4481 30.8599 25.6594 30.8288C26.2913 30.8288 27.12 30.9531 27.2547 30.1658C27.3479 29.5961 27.1718 28.7984 26.8092 28.3633C23.4322 24.2819 19.9826 20.2626 16.5538 16.2329C15.6214 15.1452 15.2692 15.1452 14.3473 16.2329C10.9392 20.2419 7.53103 24.2612 4.13326 28.2701C3.95716 28.4773 3.77069 28.6741 3.64638 28.9124C3.13879 29.8654 3.63603 30.7666 4.71337 30.8288C5.2106 30.8599 5.71819 30.8288 6.22579 30.8288C8.04898 30.8392 8.61873 31.4193 8.61873 33.2528C8.61873 38.4841 8.61873 43.7155 8.61873 48.9468C8.61873 55.3797 8.61873 61.8231 8.61873 68.256C8.61873 69.6027 9.16776 70.3175 10.3798 70.3382C12.5862 70.39 14.8031 70.3486 17.1339 70.3486V70.3693ZM51.5466 41.5193C53.463 40.3591 55.4831 39.085 57.5756 37.9144C58.1557 37.5933 58.3836 37.3136 58.3836 36.6506C58.3525 31.8233 58.3629 26.996 58.3629 22.1686C58.3629 18.9884 58.4872 18.8952 61.7088 18.8123C62.2682 18.8019 63.128 18.5223 63.2834 18.139C63.4699 17.6521 63.2523 16.7923 62.8898 16.3572C59.492 12.255 56.0321 8.20464 52.5825 4.1439C51.7331 3.13907 51.298 3.14943 50.4278 4.17497C48.4907 6.4436 46.5639 8.72259 44.6371 10.9912C43.0729 12.8351 41.4776 14.648 39.9963 16.5437C39.6855 16.9373 39.5819 17.7039 39.7373 18.17C39.8513 18.5015 40.566 18.6984 41.0425 18.8123C41.488 18.9159 41.9749 18.833 42.441 18.833C44.0985 18.8434 44.6578 19.4028 44.6578 21.0706C44.6578 26.2605 44.6578 31.4607 44.6578 36.6506C44.6578 37.1167 44.6371 37.4793 45.1862 37.7797C47.3408 38.971 49.4437 40.2555 51.5466 41.4883V41.5193Z" fill="url(#paint0_linear_1540_2784)"/>
<path d="M0 30.5488C0.766569 32.9832 2.3515 34.3817 5.11737 34.3713C5.11737 34.8582 5.11737 35.2829 5.11737 35.7076C5.11737 46.5018 5.11737 57.3062 5.11737 68.1004C5.11737 71.0734 6.56764 73.0624 9.17811 73.6839C9.59248 73.7875 10.0379 73.8082 10.473 73.8082C12.8245 73.8186 15.1656 73.8289 17.5171 73.8082C18.0765 73.8082 18.408 73.9222 18.6463 74.5126C22.9349 85.0892 30.5177 92.7135 40.2863 98.2659C43.4355 100.058 46.885 101.343 50.1896 102.865C50.2414 102.886 50.2725 102.959 50.3139 103.01H0C0 78.8634 0 54.7165 0 30.5592V30.5488Z" fill="white"/>
<path d="M60.3311 72.8964C60.9008 71.7465 61.3774 70.8349 61.8124 69.9026C62.2268 69.0221 62.8898 68.5974 63.8739 68.6078C66.4844 68.6285 69.1052 68.6078 71.7157 68.6078C73.0416 68.6078 73.8393 69.2811 73.8393 70.3584C73.8393 71.4358 73.0727 72.0884 71.7053 72.0987C69.6232 72.1195 67.5513 72.1402 65.4692 72.0884C64.7855 72.0677 64.454 72.3266 64.1743 72.9171C63.4181 74.5228 62.5894 76.087 61.8228 77.6823C61.4602 78.4385 60.9319 78.9875 60.0721 78.9668C59.1605 78.9461 58.6633 78.3556 58.3525 77.5165C57.3684 74.8128 56.3429 72.1298 55.3277 69.4365C55.2137 69.1361 55.0791 68.8356 54.8719 68.3591C53.6391 71.4461 52.4686 74.3467 51.3084 77.2472C50.8111 78.4903 50.3035 79.723 49.827 80.9764C49.4955 81.8466 48.9361 82.4371 47.9727 82.3853C47.0197 82.3335 46.5432 81.6705 46.2842 80.7796C44.7511 75.3722 43.2076 69.9751 41.6641 64.5781C41.5709 64.2673 41.4673 63.9669 41.3015 63.4282C40.7007 65.8004 40.162 67.9241 39.6337 70.0684C39.209 71.7776 38.805 72.1091 37.075 72.1091C35.169 72.1091 33.2525 72.1195 31.3465 72.1091C29.9687 72.0987 29.2022 71.4772 29.1918 70.3999C29.1711 69.2811 29.9791 68.6181 31.3879 68.6181C32.7242 68.6181 34.0709 68.5767 35.4072 68.6285C36.1738 68.6595 36.4949 68.4627 36.6814 67.6547C37.5412 64.0083 38.4839 60.3827 39.4058 56.757C39.7373 55.4414 40.2345 54.9338 41.1772 54.9027C42.1613 54.8717 42.6586 55.3689 43.0522 56.757C44.7304 62.6099 46.3982 68.4524 48.0763 74.3052C48.1489 74.5538 48.2421 74.8025 48.3871 75.2272C49.6095 72.1713 50.7697 69.2707 51.9299 66.3702C52.365 65.2825 52.8001 64.1948 53.2351 63.1071C53.5563 62.2784 54.1157 61.7397 55.0376 61.7604C55.9181 61.7811 56.405 62.3612 56.6951 63.1485C57.876 66.308 59.0569 69.4675 60.3311 72.886V72.8964Z" fill="url(#paint1_linear_1540_2784)"/>
</g>
<g clip-path="url(#clip1_1540_2784)">
<path d="M19 37.7329C19.7016 36.0336 21.1112 34.8685 22.2248 33.4846C23.5186 31.8755 24.8896 30.3371 26.2155 28.7601C27.6638 27.0415 29.524 27.0351 30.9851 28.7601C33.1157 31.2704 35.2462 33.7743 37.3703 36.291C38.4774 37.6041 38.4839 39.2777 37.4154 40.4363C36.8876 41.0027 36.3984 41.2022 35.0274 41.3953V44.176C35.0274 44.176 44.5408 42.5668 44.5665 42.5604V33.8901C44.2254 33.8515 43.9164 33.8451 43.6203 33.7743C41.4512 33.2465 40.6788 30.6976 42.1592 28.9082C43.2599 27.5758 44.3927 26.2691 45.5127 24.9496C46.607 23.6622 47.6948 22.3749 48.7954 21.094C50.057 19.6264 51.9752 19.6264 53.2368 21.1004C55.4445 23.6816 57.6459 26.2691 59.8279 28.8695C61.3405 30.6782 60.5681 33.2787 58.3861 33.7807C58.09 33.8515 57.7746 33.8515 57.4528 33.8901V42.644C60.832 41.9875 63.986 42.5024 66.9791 44.2661V41.3567C65.7046 41.3374 64.6812 40.8933 64.1212 39.696C63.5741 38.5246 63.7221 37.4046 64.5396 36.4262C66.7731 33.755 69.0259 31.1031 71.2917 28.4705C72.4503 27.1252 74.3941 27.1188 75.5656 28.4833C77.8249 31.1031 80.052 33.7485 82.2791 36.394C83.0837 37.3531 83.2575 38.4473 82.7683 39.6059C82.2855 40.7388 81.378 41.2666 80.1743 41.3438C80.0906 41.3438 80.0134 41.3631 79.846 41.3825C79.846 41.6528 79.846 41.9103 79.846 42.1742C79.846 48.8812 79.846 55.5947 79.846 62.3017C79.846 64.1683 78.9063 65.4299 77.2649 65.7968C77.001 65.8547 76.7307 65.8547 76.4603 65.8547C74.9992 65.8547 73.5445 65.8419 72.0834 65.8741C71.8774 65.8741 71.5684 66.0607 71.4976 66.2409C68.2342 74.0744 62.2996 79.198 54.7944 82.7317C53.8032 83.1952 52.7797 83.5749 51.7692 83.9998H50.2694C50.2694 83.9998 50.2244 83.9225 50.1922 83.9097C48.1389 82.9635 45.9955 82.1653 44.0387 81.0518C37.9754 77.6017 33.2573 72.8643 30.5925 66.2924C30.4444 65.932 30.2385 65.8547 29.8909 65.8547C28.4298 65.8676 26.9751 65.8676 25.5139 65.8547C25.2436 65.8547 24.9732 65.8354 24.7093 65.7775C23.0873 65.3913 22.1862 64.1555 22.1862 62.3081C22.1862 55.6011 22.1862 48.8876 22.1862 42.1806C22.1862 41.9167 22.1862 41.6528 22.1862 41.3503C20.4676 41.3567 19.4828 40.4942 19.0064 38.9751V37.7264L19 37.7329ZM30.747 56.5859C30.8306 60.744 31.9313 65.1338 34.4159 69.1246C38.2393 75.2587 43.8199 79.1787 50.4754 81.7212C50.823 81.8564 51.3057 81.8049 51.6726 81.6761C54.2473 80.7557 56.6675 79.507 58.9332 77.975C64.7842 74.0165 68.9616 68.8285 70.5836 61.8254C71.2209 59.0769 71.6457 56.277 71.0213 53.477C70.0558 49.158 67.4168 46.2293 63.1686 44.9999C58.9525 43.7769 55.2386 44.9098 52.1296 47.9865C51.2349 48.8683 50.7844 48.8812 49.8961 47.9865C47.2313 45.2895 43.9744 44.0794 40.2411 44.6845C34.5124 45.6049 30.7083 50.278 30.747 56.5988V56.5859ZM72.3795 63.7242C73.7119 63.7242 74.9799 63.7242 76.2544 63.7242C77.3228 63.7242 77.664 63.3702 77.664 62.2953C77.664 57.442 77.664 52.5887 77.664 47.7355C77.664 45.341 77.664 42.9466 77.664 40.5457C77.664 39.5737 78.0502 39.1875 79.0221 39.1682C79.3955 39.1618 79.7752 39.1682 80.1486 39.1618C80.6828 39.1425 80.9016 38.782 80.8501 38.325C80.8244 38.0611 80.6249 37.7908 80.4446 37.5784C78.3527 35.0938 76.2479 32.6157 74.1431 30.144C73.5188 29.4038 73.3128 29.4038 72.6884 30.144C71.0149 32.1136 69.3478 34.0833 67.6742 36.0529C67.1915 36.6257 66.6572 37.1664 66.2389 37.7843C66.0586 38.0482 66.02 38.4988 66.1101 38.8078C66.1681 38.988 66.5993 39.1039 66.8761 39.1618C67.1786 39.2197 67.5005 39.1682 67.8094 39.1747C68.7814 39.194 69.1354 39.548 69.1354 40.5006C69.1354 42.1484 69.1225 43.7898 69.1547 45.4376C69.1547 45.7272 69.3285 46.0491 69.5023 46.3001C70.2811 47.4265 71.208 48.4628 71.871 49.6536C73.7376 53.0136 73.6282 56.6438 73.0618 60.2999C72.888 61.4263 72.6176 62.5334 72.373 63.7435L72.3795 63.7242ZM29.6463 63.7242C29.6141 63.5182 29.6077 63.3895 29.5755 63.2736C28.9769 61.0337 28.655 58.7551 28.6035 56.4379C28.5134 52.4922 29.8329 49.1065 32.5428 46.2422C32.7295 46.0426 32.8518 45.7079 32.8582 45.4311C32.8904 44.0344 32.8711 42.6376 32.8711 41.2408C32.8711 39.2519 32.9483 39.1747 34.9437 39.1554C35.3363 39.1554 35.8513 39.2326 35.9349 38.7434C35.9929 38.3894 35.8834 37.8938 35.6582 37.6234C33.5598 35.0874 31.4164 32.5899 29.2858 30.0861C28.7065 29.4102 28.4877 29.4102 27.9148 30.0861C25.7971 32.5771 23.6795 35.0745 21.5682 37.5655C21.4588 37.6942 21.343 37.8165 21.2657 37.9646C20.9503 38.5567 21.2593 39.1167 21.9287 39.1554C22.2377 39.1747 22.5531 39.1554 22.8685 39.1554C24.0013 39.1618 24.3553 39.5222 24.3553 40.6615C24.3553 43.9121 24.3553 47.1626 24.3553 50.4131C24.3553 54.4103 24.3553 58.4139 24.3553 62.4111C24.3553 63.2479 24.6965 63.692 25.4496 63.7049C26.8206 63.7371 28.198 63.7113 29.6463 63.7113V63.7242ZM51.029 45.798C52.2198 45.0771 53.4749 44.2854 54.7751 43.5581C55.1356 43.3585 55.2772 43.1847 55.2772 42.7728C55.2579 39.7733 55.2643 36.7738 55.2643 33.7743C55.2643 31.7982 55.3415 31.7403 57.3434 31.6888C57.6909 31.6824 58.2252 31.5086 58.3217 31.2704C58.4376 30.9679 58.3024 30.4336 58.0771 30.1633C55.9659 27.6144 53.8161 25.0976 51.6726 22.5744C51.1448 21.9501 50.8745 21.9565 50.3338 22.5938C49.1301 24.0034 47.9329 25.4195 46.7357 26.8291C45.7638 27.9748 44.7725 29.1013 43.8521 30.2792C43.659 30.5238 43.5946 31.0001 43.6911 31.2897C43.7619 31.4957 44.2061 31.618 44.5022 31.6888C44.7789 31.7532 45.0815 31.7017 45.3711 31.7017C46.401 31.7081 46.7486 32.0557 46.7486 33.092C46.7486 36.3168 46.7486 39.548 46.7486 42.7728C46.7486 43.0624 46.7357 43.2877 47.0768 43.4744C48.4157 44.2146 49.7223 45.0127 51.029 45.7787V45.798Z" fill="#1166B4"/>
<path d="M56.4857 65.2947C56.8397 64.5802 57.1358 64.0138 57.4061 63.4345C57.6636 62.8873 58.0755 62.6234 58.687 62.6299C60.309 62.6427 61.9375 62.6299 63.5596 62.6299C64.3835 62.6299 64.8791 63.0483 64.8791 63.7177C64.8791 64.3871 64.4028 64.7926 63.5531 64.799C62.2594 64.8119 60.972 64.8248 59.6782 64.7926C59.2534 64.7797 59.0475 64.9406 58.8737 65.3075C58.4038 66.3052 57.8888 67.2772 57.4125 68.2684C57.1872 68.7383 56.859 69.0794 56.3247 69.0666C55.7583 69.0537 55.4493 68.6868 55.2562 68.1654C54.6448 66.4854 54.0075 64.8183 53.3767 63.1448C53.3059 62.9581 53.2222 62.7715 53.0935 62.4754C52.3275 64.3935 51.6002 66.1958 50.8793 67.9981C50.5703 68.7705 50.2549 69.5364 49.9588 70.3153C49.7529 70.856 49.4053 71.2228 48.8067 71.1907C48.2145 71.1585 47.9184 70.7465 47.7575 70.193C46.8049 66.833 45.8458 63.4795 44.8867 60.126C44.8288 59.9329 44.7644 59.7462 44.6614 59.4115C44.2881 60.8855 43.9534 62.205 43.6251 63.5374C43.3612 64.5995 43.1102 64.8055 42.0353 64.8055C40.8509 64.8055 39.6601 64.8119 38.4758 64.8055C37.6197 64.799 37.1434 64.4128 37.137 63.7434C37.1241 63.0483 37.6261 62.6363 38.5015 62.6363C39.3319 62.6363 40.1686 62.6106 40.999 62.6427C41.4753 62.6621 41.6748 62.5398 41.7907 62.0377C42.3249 59.772 42.9107 57.5191 43.4835 55.2663C43.6895 54.4488 43.9985 54.1334 44.5842 54.1141C45.1957 54.0948 45.5047 54.4038 45.7493 55.2663C46.792 58.903 47.8283 62.5333 48.871 66.17C48.9161 66.3245 48.974 66.479 49.0641 66.7429C49.8237 64.8441 50.5446 63.0418 51.2655 61.2395C51.5358 60.5637 51.8062 59.8878 52.0765 59.212C52.2761 58.697 52.6236 58.3623 53.1965 58.3752C53.7436 58.3881 54.0461 58.7485 54.2264 59.2377C54.9602 61.2009 55.6939 63.1641 56.4857 65.2882V65.2947Z" fill="#1166B4"/>
</g>
<defs>
<linearGradient id="paint0_linear_1540_2784" x1="124.911" y1="98.5216" x2="-62.1389" y2="185.654" gradientUnits="userSpaceOnUse">
<stop offset="0.144005" stop-color="#1166B4"/>
<stop offset="0.46" stop-color="#1166B4" stop-opacity="0"/>
</linearGradient>
<linearGradient id="paint1_linear_1540_2784" x1="83.3027" y1="81.1933" x2="20.5677" y2="128.636" gradientUnits="userSpaceOnUse">
<stop offset="0.144005" stop-color="#1166B4"/>
<stop offset="0.46" stop-color="#1166B4" stop-opacity="0"/>
</linearGradient>
<clipPath id="clip0_1540_2784">
<rect width="103.062" height="103" fill="white"/>
</clipPath>
<clipPath id="clip1_1540_2784">
<rect width="64.0386" height="64" fill="white" transform="translate(19 20)"/>
</clipPath>
</defs>
</svg>
