<svg width="103" height="103" viewBox="0 0 103 103" fill="none" xmlns="http://www.w3.org/2000/svg">
<g opacity="0.05">
<g clip-path="url(#clip0_1540_2783)">
<path d="M45.7577 0C48.6474 0.739074 50.9184 2.3348 51.9099 5.15672C52.5116 6.86163 52.7997 8.7513 52.7997 10.5654C52.7997 14.2608 52.5285 17.9645 52.359 21.7355H53.3335C63.5448 21.7355 73.7645 21.8027 83.9757 21.7019C88.0094 21.6599 90.2635 24.0535 90.9414 26.6486C91.7464 29.7561 90.3906 32.9896 87.2128 34.3669C87.1535 34.3921 87.1026 34.4425 87.001 34.5097C87.9331 36.265 88.1619 38.1127 87.484 40.0024C86.823 41.8584 85.518 43.1686 83.713 43.9497C85.2468 48.846 84.4587 51.0717 80.3149 53.5828C81.5776 56.0772 81.7047 58.58 80.0183 60.9484C78.3151 63.3504 75.705 63.5687 72.951 63.5267C73.4425 66.3403 73.417 69.053 72.7815 71.7573C71.4341 77.46 68.2225 81.844 63.1804 84.8759C62.5448 85.2622 62.333 85.657 62.3415 86.3792C62.3754 91.1076 62.3499 95.836 62.3669 100.556C62.3669 101.513 62.2398 102.37 61.2398 102.824C60.2738 103.26 59.5704 102.782 58.8502 102.211C57.0537 100.783 55.2063 99.4222 53.4522 97.9608C52.8336 97.4485 52.4607 97.5493 51.9184 97.986C50.071 99.4558 48.1898 100.875 46.3424 102.336C45.6645 102.866 44.9781 103.21 44.1138 102.807C43.2155 102.395 42.9867 101.639 42.9867 100.741C42.9867 95.9116 42.9867 91.0824 42.9952 86.2616C42.9952 85.6737 42.8766 85.3042 42.3088 84.9767C35.0296 80.769 30.5807 72.1101 32.5467 63.048C32.5721 62.922 32.5467 62.7877 32.5467 62.5189C31.284 62.2922 30.0045 62.0654 28.7503 61.847C28.03 63.8123 27.8436 63.9383 25.7674 63.9383C22.4202 63.9383 19.0729 63.9383 15.7172 63.9383C13.9122 63.9383 13.2852 63.3084 13.2852 61.5111C13.2852 49.9463 13.2852 38.3814 13.2852 26.8166C13.2852 25.1033 13.8699 24.507 15.5816 24.4986C18.9289 24.4986 22.2761 24.4986 25.6319 24.4986C27.1741 24.4986 28.2362 25.2237 28.8181 26.6738C30.4621 26.1447 32.1484 25.6828 33.7669 25.0529C36.682 23.9107 38.1057 21.6179 38.648 18.6364C39.309 14.9914 39.5547 11.3381 39.2158 7.63429C39.1226 6.65166 39.1988 5.61864 39.3683 4.64441C39.8089 2.20042 41.3597 0.713878 43.7155 0H45.7493L45.7577 0ZM28.6401 58.0929C30.2163 58.3616 31.6484 58.5716 33.0721 58.8739C33.6822 58.9999 33.9449 58.8739 34.2415 58.3112C39.8852 47.4183 52.8675 43.7229 63.4685 49.9463C63.8244 50.1562 64.282 50.2906 64.6888 50.2906C69.0529 50.3158 73.417 50.3158 77.7727 50.299C79.5946 50.299 80.8064 49.1148 80.8234 47.3847C80.8318 45.6546 79.6201 44.4536 77.8066 44.4452C74.1204 44.4284 70.4342 44.4452 66.748 44.4452C65.3582 44.4452 63.977 44.4704 62.5872 44.4452C61.4263 44.42 60.6975 43.7145 60.6636 42.6647C60.6297 41.6149 61.3415 40.901 62.5025 40.817C62.8753 40.7918 63.2482 40.8002 63.621 40.8002C69.3326 40.8002 75.0525 40.8002 80.7641 40.8002C81.9758 40.8002 83.0436 40.5567 83.7215 39.4313C84.7469 37.7263 83.9079 34.8876 81.0607 34.9212C76.2898 34.98 71.5273 34.938 66.7564 34.9296C66.3158 34.9296 65.8751 34.9128 65.443 34.8456C64.5447 34.7029 64.1041 34.1234 64.0363 33.2583C63.9346 31.9733 64.7142 31.2511 66.2056 31.2427C72.29 31.2427 78.3828 31.2427 84.4672 31.2259C86.3739 31.2259 87.467 30.0501 87.4162 28.1688C87.3653 26.3799 86.2044 25.3553 84.1876 25.3553C72.7561 25.3553 61.3246 25.3553 49.8931 25.3553C48.4101 25.3553 47.5373 24.3558 47.9101 23.0457C49.2575 18.3089 49.4694 13.4797 49.0118 8.61693C48.8253 6.61807 48.0627 4.90476 46.1221 3.97252C44.4612 3.17466 43.0291 4.02291 42.902 5.837C42.8596 6.50049 42.8596 7.18077 42.9274 7.84426C43.3257 11.6488 42.9274 15.3946 42.3088 19.1403C41.5122 23.9947 38.8005 27.2281 34.1483 28.8659C32.6907 29.3782 31.1908 29.8233 29.674 30.1005C28.7757 30.26 28.6232 30.6044 28.6232 31.4022C28.6486 39.952 28.6401 48.4933 28.6401 57.043V58.1013V58.0929ZM52.7234 50.593C43.4443 50.5762 35.8177 58.0593 35.8007 67.2137C35.7838 76.5109 43.3003 84.078 52.5709 84.0948C61.9771 84.1116 69.5783 76.6453 69.5952 67.3649C69.6122 58.1265 62.0533 50.6097 52.7234 50.593ZM17.0137 28.194V60.1925H24.8353V28.194H17.0137ZM58.5705 97.3394V86.8915C54.6047 88.0337 50.7151 88.0086 46.7831 86.8999V97.3394C48.3338 96.13 49.7575 95.0214 51.1811 93.9127C52.376 92.9889 52.9607 92.9805 54.1471 93.8959C55.5792 95.0046 57.0113 96.1216 58.579 97.3394H58.5705ZM68.2733 53.9524C68.8156 54.6746 69.2563 55.2206 69.6546 55.8001C70.0529 56.3796 70.4257 56.9759 70.7647 57.589C72.1544 60.1001 72.1459 60.1085 75.061 59.7474C75.5186 59.6886 76.0186 59.571 76.3914 59.3359C76.7897 59.0755 77.2643 58.6892 77.3744 58.2692C77.8744 56.3964 77.2388 54.1707 74.6204 53.986C72.5781 53.8432 70.5274 53.9608 68.2733 53.9608V53.9524Z" fill="url(#paint0_linear_1540_2783)"/>
<path d="M16.1398 88.1433C10.9706 88.1181 6.96241 84.0616 6.99631 78.8797C7.0302 73.9497 11.1316 69.9436 16.1652 69.9268C21.2242 69.91 25.4189 74.0589 25.4104 79.056C25.402 84.07 21.2158 88.1685 16.1398 88.1433ZM21.6734 79.0477C21.6734 76.0158 19.2752 73.6138 16.233 73.597C13.1485 73.5802 10.6486 76.0242 10.6486 79.0393C10.6486 82.0375 13.1824 84.5151 16.233 84.5067C19.2498 84.4899 21.6818 82.0627 21.6818 79.0477H21.6734Z" fill="url(#paint1_linear_1540_2783)"/>
<path d="M88.2759 88.1432C83.1914 88.1096 79.0307 83.944 79.0985 78.9636C79.1663 73.9833 83.3016 69.9268 88.3267 69.9268C93.4874 69.9268 97.5634 74.0756 97.5211 79.266C97.4702 84.1539 93.284 88.1768 88.2843 88.1432H88.2759ZM88.3437 73.5969C85.2845 73.5969 82.8694 75.9485 82.8355 78.9804C82.8016 82.0375 85.2422 84.4983 88.3182 84.5067C91.3604 84.5067 93.8942 81.9955 93.8688 79.0056C93.8433 76.0241 91.3689 73.6053 88.3437 73.5969Z" fill="url(#paint2_linear_1540_2783)"/>
<path d="M21.3718 93.4679C21.3718 89.2854 24.7444 85.9176 28.9476 85.9092C33.1761 85.9092 36.6335 89.3274 36.6081 93.5099C36.5912 97.6504 33.1676 101.001 28.9476 100.993C24.719 100.993 21.3633 97.6588 21.3633 93.4679H21.3718ZM32.8033 93.4931C32.8033 91.1919 31.2525 89.571 28.9984 89.5458C26.7274 89.5206 25.041 91.2171 25.058 93.4931C25.0749 95.7355 26.7104 97.3648 28.956 97.3732C31.2271 97.3732 32.8033 95.7859 32.8033 93.4931Z" fill="url(#paint3_linear_1540_2783)"/>
<path d="M83.1466 93.4595C83.1466 97.6504 79.7994 100.985 75.5793 100.993C71.3592 101.001 67.9357 97.6672 67.9103 93.5183C67.8849 89.3358 71.3338 85.9008 75.5624 85.9092C79.7655 85.9092 83.1382 89.2686 83.1466 93.4511V93.4595ZM71.6558 93.4763C71.6558 95.7523 73.2405 97.3648 75.503 97.3732C77.7995 97.39 79.4604 95.7439 79.4604 93.4595C79.4604 91.2255 77.8249 89.5794 75.5878 89.5458C73.2998 89.5122 71.6558 91.1583 71.6558 93.4679V93.4763Z" fill="url(#paint4_linear_1540_2783)"/>
<path d="M96.4399 89.9239C100.118 89.9407 103.024 92.8802 102.999 96.5504C102.973 100.153 99.9567 103.026 96.245 103C92.669 102.975 89.7878 99.9938 89.8048 96.3572C89.8217 92.771 92.7792 89.9071 96.4399 89.9239ZM99.2533 96.5084C99.2788 94.7951 98.0754 93.5521 96.3806 93.5521C94.7536 93.5521 93.5333 94.7615 93.4995 96.416C93.4656 98.0537 94.6689 99.3387 96.2874 99.3891C97.9568 99.4395 99.2279 98.2133 99.2618 96.5168L99.2533 96.5084Z" fill="url(#paint5_linear_1540_2783)"/>
<path d="M8.13393 89.9151C11.7439 89.9235 14.6929 92.8546 14.6844 96.4323C14.6844 100.061 11.71 103 8.04919 102.992C4.4223 102.992 1.49875 100.027 1.5157 96.3568C1.53265 92.7874 4.49009 89.9067 8.13393 89.9151ZM8.13393 99.3718C9.79485 99.3382 11.049 98.0197 10.9812 96.3652C10.9219 94.6938 9.71858 93.5264 8.06614 93.5348C6.39675 93.5432 5.16802 94.845 5.22733 96.5331C5.28665 98.2044 6.51539 99.4054 8.13393 99.3802V99.3718Z" fill="url(#paint6_linear_1540_2783)"/>
<path d="M58.9382 78.2996C58.7602 78.2408 58.3704 78.1484 58.0145 77.9805C56.4637 77.2498 54.9299 76.4687 53.3538 75.78C52.9894 75.6205 52.447 75.6289 52.0826 75.78C50.4726 76.4771 48.9133 77.2582 47.3202 77.9889C46.5915 78.3248 45.8373 78.518 45.1254 77.9469C44.4051 77.3758 44.3374 76.6451 44.4899 75.7716C44.7695 74.1927 44.9305 72.5886 45.1678 71.0012C45.2695 70.321 45.1254 69.817 44.6001 69.3131C43.3883 68.1457 42.2527 66.9027 41.0748 65.7018C40.524 65.1391 40.202 64.526 40.4817 63.7113C40.7528 62.9134 41.363 62.5607 42.1426 62.4179C43.8035 62.124 45.4559 61.8048 47.1253 61.5781C47.8541 61.4773 48.2524 61.1581 48.5659 60.5366C49.3201 59.0417 50.1336 57.5803 50.9217 56.1022C51.2946 55.4051 51.7945 54.9264 52.6504 54.9096C53.5487 54.8928 54.0825 55.3883 54.4723 56.119C55.2943 57.6559 56.0824 59.2097 56.9637 60.713C57.184 61.0825 57.667 61.4269 58.0908 61.5193C59.7347 61.872 61.4041 62.1072 63.0735 62.3927C63.9209 62.5355 64.6073 62.8546 64.9124 63.7449C65.2174 64.6183 64.7853 65.223 64.2344 65.8025C63.0311 67.0707 61.7939 68.3137 60.633 69.6155C60.3872 69.8842 60.2516 70.3798 60.294 70.7493C60.4889 72.6138 60.8109 74.4615 60.9889 76.3175C61.099 77.4513 60.2686 78.266 58.9551 78.2828L58.9382 78.2996ZM48.3964 73.2101H48.7439C49.6252 72.8153 50.5319 72.4458 51.3962 72.0091C52.2775 71.5639 53.108 71.5556 53.9978 72.0091C54.8876 72.4626 55.8197 72.8321 56.7349 73.2353C56.6586 71.7487 56.201 70.2034 56.6078 68.9436C57.0315 67.6586 58.3026 66.6424 59.2263 65.4666C58.328 65.307 57.4806 65.0971 56.6163 65.0131C55.3367 64.8871 54.5147 64.2488 53.9808 63.115C53.6164 62.3255 53.1758 61.5697 52.6928 60.6542C52.1843 61.6201 51.7352 62.4011 51.3369 63.2074C50.82 64.2488 50.0319 64.8535 48.8456 64.9963C47.9304 65.1055 47.0321 65.307 45.7271 65.5422C48.8117 67.4906 49.7269 69.985 48.3795 73.2101H48.3964Z" fill="url(#paint7_linear_1540_2783)"/>
</g>
</g>
<g clip-path="url(#clip1_1540_2783)">
<path d="M47.4434 20C49.2358 20.4592 50.6445 21.4508 51.2595 23.2042C51.6327 24.2635 51.8114 25.4377 51.8114 26.5649C51.8114 28.8611 51.6432 31.1624 51.5381 33.5055H52.1426C58.4766 33.5055 64.8158 33.5473 71.1498 33.4847C73.6518 33.4586 75.05 34.9459 75.4706 36.5584C75.9699 38.4892 75.1289 40.4984 73.1577 41.3542C73.1209 41.3699 73.0894 41.4012 73.0263 41.4429C73.6045 42.5336 73.7465 43.6817 73.3259 44.8558C72.9159 46.0091 72.1065 46.8232 70.9868 47.3085C71.9382 50.3509 71.4494 51.7339 68.879 53.2942C69.6622 54.8441 69.7411 56.3992 68.695 57.8708C67.6385 59.3633 66.0195 59.499 64.3112 59.4729C64.6161 61.2211 64.6003 62.9067 64.2061 64.5871C63.3703 68.1305 61.3781 70.8545 58.2505 72.7384C57.8563 72.9785 57.7249 73.2237 57.7302 73.6725C57.7512 76.6106 57.7354 79.5486 57.7459 82.4814C57.7459 83.0763 57.6671 83.6086 57.0468 83.8904C56.4476 84.1618 56.0113 83.8643 55.5645 83.5095C54.4502 82.6223 53.3043 81.7769 52.2162 80.8689C51.8325 80.5506 51.6012 80.6132 51.2648 80.8845C50.1189 81.7978 48.952 82.6797 47.8061 83.5877C47.3855 83.9165 46.9598 84.1305 46.4236 83.88C45.8664 83.6243 45.7245 83.1546 45.7245 82.5962C45.7245 79.5956 45.7245 76.5949 45.7298 73.5995C45.7298 73.2342 45.6562 73.0046 45.304 72.801C40.7887 70.1866 38.0291 64.8063 39.2486 59.1755C39.2644 59.0972 39.2486 59.0137 39.2486 58.8467C38.4654 58.7058 37.6717 58.5649 36.8937 58.4292C36.4469 59.6504 36.3313 59.7286 35.0435 59.7286C32.9672 59.7286 30.8909 59.7286 28.8094 59.7286C27.6898 59.7286 27.3008 59.3372 27.3008 58.2205C27.3008 51.0346 27.3008 43.8487 27.3008 36.6628C27.3008 35.5982 27.6635 35.2277 28.7253 35.2224C30.8016 35.2224 32.8778 35.2224 34.9594 35.2224C35.916 35.2224 36.5748 35.673 36.9358 36.574C37.9555 36.2453 39.0016 35.9583 40.0055 35.5669C41.8137 34.8571 42.6968 33.4325 43.0332 31.5799C43.4432 29.3151 43.5957 27.045 43.3854 24.7436C43.3276 24.1331 43.3749 23.4912 43.48 22.8858C43.7534 21.3673 44.7153 20.4436 46.1766 20H47.4381L47.4434 20ZM36.8254 56.0965C37.8031 56.2635 38.6914 56.394 39.5745 56.5819C39.953 56.6601 40.1159 56.5819 40.2999 56.2322C43.8007 49.4638 51.8535 47.1676 58.4293 51.0346C58.65 51.165 58.9339 51.2485 59.1862 51.2485C61.8932 51.2642 64.6003 51.2642 67.3021 51.2537C68.4322 51.2537 69.1839 50.5179 69.1944 49.4429C69.1997 48.3679 68.448 47.6217 67.3231 47.6164C65.0366 47.606 62.75 47.6164 60.4635 47.6164C59.6014 47.6164 58.7446 47.6321 57.8826 47.6164C57.1625 47.6008 56.7104 47.1624 56.6894 46.5101C56.6684 45.8578 57.1099 45.4142 57.83 45.362C58.0613 45.3464 58.2926 45.3516 58.5239 45.3516C62.0667 45.3516 65.6148 45.3516 69.1576 45.3516C69.9093 45.3516 70.5716 45.2003 70.9921 44.501C71.6281 43.4416 71.1077 41.6778 69.3416 41.6986C66.3822 41.7352 63.4281 41.7091 60.4688 41.7038C60.1954 41.7038 59.9221 41.6934 59.654 41.6517C59.0968 41.5629 58.8235 41.2029 58.7814 40.6654C58.7184 39.8669 59.202 39.4181 60.1271 39.4129C63.9012 39.4129 67.6806 39.4129 71.4547 39.4025C72.6374 39.4025 73.3154 38.6719 73.2839 37.5029C73.2524 36.3914 72.5322 35.7547 71.2812 35.7547C64.1903 35.7547 57.0994 35.7547 50.0085 35.7547C49.0886 35.7547 48.5472 35.1337 48.7785 34.3196C49.6143 31.3764 49.7457 28.3757 49.4618 25.3542C49.3462 24.1122 48.8731 23.0476 47.6694 22.4684C46.6391 21.9726 45.7508 22.4997 45.6719 23.6269C45.6457 24.0391 45.6457 24.4618 45.6877 24.8741C45.9348 27.2381 45.6877 29.5656 45.304 31.893C44.8099 34.9093 43.1278 36.9185 40.2421 37.9361C39.338 38.2544 38.4076 38.531 37.4667 38.7032C36.9095 38.8023 36.8149 39.0163 36.8149 39.5121C36.8307 44.8245 36.8254 50.1318 36.8254 55.4442V56.1018V56.0965ZM51.7641 51.4364C46.0084 51.426 41.2776 56.0757 41.2671 61.7639C41.2566 67.5408 45.919 72.2427 51.6695 72.2531C57.5041 72.2635 62.2191 67.6243 62.2296 61.8578C62.2402 56.1174 57.5514 51.4468 51.7641 51.4364ZM29.6136 37.5186V57.4012H34.4653V37.5186H29.6136ZM55.3911 80.4827V73.9909C52.9311 74.7006 50.5184 74.6849 48.0794 73.9961V80.4827C49.0413 79.7312 49.9244 79.0424 50.8075 78.3536C51.5486 77.7795 51.9113 77.7743 52.6472 78.3431C53.5355 79.032 54.4239 79.726 55.3963 80.4827H55.3911ZM61.4097 53.5238C61.7461 53.9726 62.0194 54.3118 62.2664 54.6719C62.5135 55.032 62.7448 55.4025 62.955 55.7834C63.8171 57.3438 63.8118 57.349 65.62 57.1246C65.9039 57.0881 66.214 57.015 66.4453 56.8689C66.6923 56.7071 66.9867 56.4671 67.055 56.2061C67.3652 55.0424 66.9709 53.6595 65.3467 53.5447C64.0799 53.456 62.8079 53.529 61.4097 53.529V53.5238Z" fill="#1166B4"/>
<path d="M29.0741 74.7682C25.8677 74.7526 23.3815 72.232 23.4025 69.0122C23.4235 65.9489 25.9676 63.4597 29.0899 63.4493C32.228 63.4388 34.8299 66.0168 34.8247 69.1218C34.8194 72.2372 32.2227 74.7839 29.0741 74.7682ZM32.5066 69.1166C32.5066 67.2327 31.019 65.7402 29.132 65.7297C27.2186 65.7193 25.668 67.2379 25.668 69.1113C25.668 70.9744 27.2397 72.5138 29.132 72.5086C31.0033 72.4982 32.5118 70.99 32.5118 69.1166H32.5066Z" fill="#1166B4"/>
<path d="M73.8143 74.7682C70.6604 74.7473 68.0795 72.1589 68.1216 69.0643C68.1637 65.9698 70.7288 63.4492 73.8458 63.4492C77.047 63.4492 79.5753 66.0272 79.549 69.2522C79.5175 72.2894 76.9208 74.7891 73.8196 74.7682H73.8143ZM73.8563 65.7297C71.9588 65.7297 70.4607 67.1909 70.4397 69.0748C70.4187 70.9743 71.9325 72.5034 73.8406 72.5086C75.7276 72.5086 77.2993 70.9482 77.2835 69.0904C77.2678 67.2379 75.7329 65.7349 73.8563 65.7297Z" fill="#1166B4"/>
<path d="M32.3139 78.0766C32.3139 75.4777 34.4059 73.3851 37.0131 73.3799C39.636 73.3799 41.7807 75.5038 41.7649 78.1026C41.7544 80.6754 39.6308 82.7576 37.0131 82.7524C34.3901 82.7524 32.3086 80.6806 32.3086 78.0766H32.3139ZM39.4048 78.0922C39.4048 76.6623 38.4428 75.6552 37.0446 75.6395C35.6359 75.6238 34.5899 76.678 34.6004 78.0922C34.6109 79.4856 35.6254 80.498 37.0183 80.5032C38.4271 80.5032 39.4048 79.5169 39.4048 78.0922Z" fill="#1166B4"/>
<path d="M70.6347 78.0713C70.6347 80.6754 68.5584 82.7471 65.9407 82.7524C63.323 82.7576 61.1994 80.6858 61.1837 78.1079C61.1679 75.509 63.3073 73.3747 65.9302 73.3799C68.5374 73.3799 70.6295 75.4673 70.6347 78.0661V78.0713ZM63.507 78.0818C63.507 79.496 64.49 80.498 65.8934 80.5032C67.3179 80.5136 68.3482 79.4908 68.3482 78.0713C68.3482 76.6832 67.3337 75.6604 65.946 75.6395C64.5268 75.6186 63.507 76.6415 63.507 78.0766V78.0818Z" fill="#1166B4"/>
<path d="M78.8814 75.875C81.1627 75.8855 82.9657 77.712 82.9499 79.9925C82.9341 82.2312 81.0629 84.0159 78.7605 84.0003C76.5423 83.9846 74.7552 82.1321 74.7657 79.8724C74.7762 77.6441 76.6107 75.8646 78.8814 75.875ZM80.6266 79.9664C80.6423 78.9018 79.8959 78.1294 78.8446 78.1294C77.8354 78.1294 77.0785 78.8809 77.0575 79.909C77.0364 80.9266 77.7828 81.725 78.7868 81.7563C79.8223 81.7876 80.6108 81.0257 80.6318 79.9716L80.6266 79.9664Z" fill="#1166B4"/>
<path d="M24.1053 75.8692C26.3445 75.8744 28.1738 77.6956 28.1685 79.9187C28.1685 82.1731 26.3235 83.9996 24.0527 83.9944C21.803 83.9944 19.9895 82.1523 20 79.8718C20.0106 77.6539 21.845 75.8639 24.1053 75.8692ZM24.1053 81.7452C25.1356 81.7243 25.9135 80.905 25.8715 79.877C25.8347 78.8385 25.0883 78.1131 24.0633 78.1183C23.0277 78.1236 22.2656 78.9324 22.3024 79.9814C22.3391 81.0198 23.1013 81.7661 24.1053 81.7504V81.7452Z" fill="#1166B4"/>
<path d="M55.6177 68.652C55.5073 68.6155 55.2655 68.5581 55.0447 68.4537C54.0828 67.9997 53.1314 67.5144 52.1537 67.0865C51.9277 66.9873 51.5913 66.9925 51.3652 67.0865C50.3665 67.5196 49.3993 68.0049 48.4111 68.4589C47.9591 68.6677 47.4913 68.7877 47.0497 68.4328C46.6029 68.078 46.5609 67.624 46.6555 67.0812C46.829 66.1002 46.9288 65.1034 47.076 64.1171C47.1391 63.6944 47.0497 63.3813 46.7238 63.0682C45.9722 62.3428 45.2678 61.5705 44.5372 60.8242C44.1955 60.4746 43.9957 60.0936 44.1692 59.5874C44.3374 59.0917 44.7159 58.8725 45.1995 58.7838C46.2297 58.6011 47.2547 58.4028 48.2902 58.2619C48.7423 58.1993 48.9893 58.001 49.1838 57.6148C49.6516 56.6859 50.1563 55.7779 50.6451 54.8595C50.8764 54.4263 51.1865 54.1289 51.7174 54.1184C52.2746 54.108 52.6058 54.4159 52.8475 54.8699C53.3574 55.8249 53.8463 56.7903 54.3929 57.7244C54.5296 57.954 54.8292 58.168 55.092 58.2254C56.1118 58.4446 57.1473 58.5907 58.1828 58.7681C58.7084 58.8568 59.1342 59.0551 59.3234 59.6083C59.5127 60.151 59.2446 60.5268 58.9029 60.8868C58.1565 61.6748 57.3891 62.4472 56.669 63.2561C56.5165 63.4231 56.4324 63.7309 56.4587 63.9606C56.5796 65.1191 56.7793 66.2672 56.8897 67.4204C56.9581 68.1249 56.4429 68.6311 55.6282 68.6416L55.6177 68.652ZM49.0787 65.4896H49.2942C49.8409 65.2443 50.4033 65.0147 50.9395 64.7433C51.4861 64.4668 52.0013 64.4615 52.5532 64.7433C53.1051 65.0251 53.6833 65.2548 54.251 65.5052C54.2037 64.5816 53.9199 63.6214 54.1722 62.8386C54.435 62.0401 55.2234 61.4087 55.7964 60.6781C55.2392 60.579 54.7136 60.4485 54.1774 60.3963C53.3837 60.318 52.8738 59.9214 52.5427 59.2169C52.3166 58.7264 52.0433 58.2567 51.7437 57.6879C51.4283 58.288 51.1497 58.7733 50.9027 59.2743C50.582 59.9214 50.0932 60.2972 49.3573 60.3859C48.7896 60.4537 48.2324 60.579 47.4229 60.7251C49.3363 61.9358 49.904 63.4857 49.0682 65.4896H49.0787Z" fill="#1166B4"/>
</g>
<defs>
<linearGradient id="paint0_linear_1540_2783" x1="107.676" y1="98.5154" x2="-45.3725" y2="152.398" gradientUnits="userSpaceOnUse">
<stop stop-color="#1166B4"/>
<stop offset="0.35" stop-color="#1166B4" stop-opacity="0"/>
</linearGradient>
<linearGradient id="paint1_linear_1540_2783" x1="29.3135" y1="87.3514" x2="-3.98312" y2="103.021" gradientUnits="userSpaceOnUse">
<stop stop-color="#1166B4"/>
<stop offset="0.35" stop-color="#1166B4" stop-opacity="0"/>
</linearGradient>
<linearGradient id="paint2_linear_1540_2783" x1="101.426" y1="87.3514" x2="68.119" y2="103.035" gradientUnits="userSpaceOnUse">
<stop stop-color="#1166B4"/>
<stop offset="0.35" stop-color="#1166B4" stop-opacity="0"/>
</linearGradient>
<linearGradient id="paint3_linear_1540_2783" x1="39.8395" y1="100.337" x2="12.2721" y2="113.309" gradientUnits="userSpaceOnUse">
<stop stop-color="#1166B4"/>
<stop offset="0.35" stop-color="#1166B4" stop-opacity="0"/>
</linearGradient>
<linearGradient id="paint4_linear_1540_2783" x1="86.3761" y1="100.337" x2="58.8184" y2="113.297" gradientUnits="userSpaceOnUse">
<stop stop-color="#1166B4"/>
<stop offset="0.35" stop-color="#1166B4" stop-opacity="0"/>
</linearGradient>
<linearGradient id="paint5_linear_1540_2783" x1="105.796" y1="102.432" x2="81.9219" y2="113.647" gradientUnits="userSpaceOnUse">
<stop stop-color="#1166B4"/>
<stop offset="0.35" stop-color="#1166B4" stop-opacity="0"/>
</linearGradient>
<linearGradient id="paint6_linear_1540_2783" x1="17.4756" y1="102.423" x2="-6.36849" y2="113.602" gradientUnits="userSpaceOnUse">
<stop stop-color="#1166B4"/>
<stop offset="0.35" stop-color="#1166B4" stop-opacity="0"/>
</linearGradient>
<linearGradient id="paint7_linear_1540_2783" x1="70.2348" y1="77.2929" x2="26.3634" y2="98.7945" gradientUnits="userSpaceOnUse">
<stop stop-color="#1166B4"/>
<stop offset="0.35" stop-color="#1166B4" stop-opacity="0"/>
</linearGradient>
<clipPath id="clip0_1540_2783">
<rect width="101.485" height="103" fill="white" transform="translate(1.51562)"/>
</clipPath>
<clipPath id="clip1_1540_2783">
<rect width="62.9508" height="64" fill="white" transform="translate(20 20)"/>
</clipPath>
</defs>
</svg>
