<svg width="104" height="103" viewBox="0 0 104 103" fill="none" xmlns="http://www.w3.org/2000/svg">
<g clip-path="url(#clip0_1540_2785)">
<path d="M53.3642 17C54.4701 17.1637 55.581 17.3025 56.682 17.5009C63.377 18.7159 69.1001 21.7857 73.8511 26.636C78.3195 31.1985 81.181 36.629 82.4059 42.9025C83.2391 47.1626 83.1895 51.4177 82.3067 55.6678C82.1728 56.3175 81.8455 56.7886 81.176 56.9324C80.6355 57.0515 80.1147 56.8729 79.8816 56.3968C79.6882 56.0001 79.6337 55.4843 79.6783 55.0429C79.8122 53.7634 80.0354 52.4938 80.204 51.2193C80.2387 50.9565 80.209 50.6886 80.209 50.3365C79.9709 50.3365 79.7477 50.3365 79.5295 50.3365C77.8037 50.3365 76.0729 50.3365 74.347 50.3365C73.3453 50.3365 72.7402 49.8158 72.7402 48.9826C72.7402 48.1544 73.3502 47.6287 74.3421 47.6238C76.0679 47.6238 77.7987 47.6238 79.5246 47.6238C79.7477 47.6238 79.9709 47.6238 80.2685 47.6238C79.9263 41.3453 77.8483 35.8107 74.0644 30.9258C72.5914 31.5308 71.1731 32.1706 69.7101 32.6962C68.252 33.2219 66.7494 33.6336 65.2219 34.1096C65.4401 35.1213 65.6732 36.1479 65.8765 37.1844C66.6254 40.9733 66.9725 44.797 66.9725 48.6553C66.9725 49.5381 66.2038 50.2969 65.212 50.3266C63.7341 50.3663 62.2562 50.3564 60.7783 50.3266C59.9452 50.3117 59.36 49.6819 59.3897 48.938C59.4195 48.1842 60.0196 47.6387 60.8627 47.6287C61.9636 47.6139 63.0646 47.6287 64.2499 47.6287C64.2052 43.205 63.62 38.9053 62.5538 34.7544C59.1418 35.1015 55.7843 35.4387 52.3773 35.7859V47.5891C52.9773 47.7676 53.508 48.0354 53.6121 48.7446C53.6369 48.9281 53.6469 49.1265 53.5973 49.3C53.5328 49.5133 53.4286 49.8456 53.2848 49.8753C52.3078 50.1034 52.2781 51.378 51.3308 51.6012C50.5175 51.7946 49.9869 51.4276 49.5752 50.3713H37.6977C37.7671 51.6656 37.7423 52.96 37.9209 54.2246C38.3027 56.9374 38.7689 59.6402 39.2301 62.3381C39.4483 63.6176 38.7739 64.3466 37.5241 64.173C37.6679 64.4557 37.8861 64.7434 37.9605 65.0657C38.144 65.8642 37.653 66.4097 36.7356 66.7221C34.5981 67.4412 32.4755 68.2149 30.348 68.9737C30.1992 69.0282 30.0703 69.1274 29.7578 69.301C31.1712 70.4862 32.4507 71.6765 33.8393 72.713C36.9389 75.024 40.3956 76.616 44.1696 77.4987C44.2886 77.5285 44.4076 77.5681 44.5316 77.6029C45.3202 77.836 45.7417 78.4707 45.583 79.1898C45.4243 79.9189 44.6903 80.3751 43.8968 80.1867C43.0686 79.9933 42.2355 79.7949 41.432 79.5172C29.6636 75.4406 22.423 67.2825 19.6309 55.1669C19.3631 53.9965 19.2837 52.7864 19.1102 51.5912C19.0854 51.4276 19.0358 51.2689 18.9961 51.1102C18.9961 49.6521 18.9961 48.1941 18.9961 46.7361C19.1399 45.7095 19.249 44.678 19.4276 43.6613C20.5682 37.1299 23.4297 31.4614 28.0518 26.7103C32.8227 21.8205 38.5705 18.7258 45.3003 17.5009C46.4013 17.3025 47.5072 17.1637 48.6131 17C50.1952 17 51.7772 17 53.3592 17H53.3642ZM36.9141 63.93C35.5602 59.5311 35.2031 54.9785 34.98 50.3861H21.7088C22.0758 56.6597 24.1885 62.2042 28.0121 67.1089C30.9084 65.6261 33.884 64.5648 36.9141 63.93ZM36.7257 34.2237C33.7451 33.1525 30.8241 32.1011 27.8336 31.025C24.129 35.8157 22.051 41.3503 21.7138 47.5742H34.9998C35.1139 42.9868 35.6396 38.5036 36.7257 34.2237ZM49.5852 47.604V35.7809C46.1732 35.4338 42.8157 35.0916 39.4136 34.7444C38.3424 38.9103 37.7622 43.205 37.7175 47.599H49.5852V47.604ZM40.2269 31.9375C41.4916 32.4284 48.2709 33.0979 49.6 32.8549V19.8714C49.4463 19.9012 49.3273 19.921 49.2132 19.9558C47.7155 20.412 46.5153 21.3196 45.459 22.4354C42.895 25.1333 41.437 28.4461 40.222 31.9375H40.2269ZM52.3872 19.8615V32.9293C55.5463 32.8897 58.6359 32.607 61.7752 31.997C61.3239 30.8464 60.937 29.7504 60.4709 28.6941C59.3451 26.1499 57.9813 23.7546 55.9033 21.8453C54.9016 20.9228 53.7857 20.1888 52.3872 19.8615ZM72.1897 28.7685C68.3711 24.8407 63.9374 22.1676 58.7252 20.7889C60.0692 22.3313 61.2247 23.9827 62.0926 25.8127C62.9555 27.6229 63.7093 29.4925 64.5474 31.4068C67.0965 30.8266 69.6407 29.9736 72.1897 28.7685ZM43.2124 20.7939C38.0052 22.1775 33.5765 24.8556 29.7975 28.7685C32.3416 29.9686 34.8907 30.8315 37.5489 31.4316C38.8532 27.5187 40.5047 23.8885 43.2124 20.7988V20.7939Z" fill="#1166B4"/>
<path d="M68.2992 62.2385C68.2992 61.9756 68.2992 61.7525 68.2992 61.5293C68.2992 59.6547 68.3042 57.7801 68.2992 55.9054C68.2992 55.2508 68.4678 54.6954 69.1175 54.4276C69.787 54.1498 70.3127 54.4127 70.7938 54.8987C74.6472 58.762 78.5105 62.6154 82.3639 66.4738C83.2169 67.3268 83.2119 67.9715 82.3539 68.8294C78.5154 72.6729 74.667 76.5114 70.8285 80.3598C70.3326 80.8558 69.7969 81.1484 69.1026 80.8607C68.4133 80.5731 68.2992 79.973 68.2992 79.3134C68.3042 77.4388 68.2992 75.5642 68.2992 73.6896C68.2992 73.4664 68.2992 73.2432 68.2992 72.9953H57.6565C57.6565 73.2383 57.6565 73.4565 57.6565 73.6796C57.6565 75.5543 57.6516 77.4289 57.6565 79.3035C57.6565 79.9928 57.5226 80.6078 56.8035 80.8855C56.1291 81.1434 55.6133 80.8508 55.1372 80.3698C51.3037 76.5213 47.4552 72.6779 43.6117 68.8344C42.7488 67.9715 42.7389 67.3317 43.582 66.4837C47.4503 62.6104 51.3235 58.7372 55.2017 54.8689C56.015 54.0606 57.1358 54.1697 57.5127 55.102C57.6268 55.3798 57.6417 55.712 57.6466 56.0195C57.6565 57.8495 57.6516 59.6844 57.6516 61.5144C57.6516 61.7376 57.6516 61.9657 57.6516 62.2385H68.2943H68.2992ZM46.4237 67.6194C49.2604 70.4412 52.1418 73.3027 54.9835 76.1295C54.9835 74.8649 54.9835 73.4912 54.9835 72.1224C54.9835 70.6892 55.3951 70.2825 56.8482 70.2825C60.8057 70.2825 64.7632 70.2825 68.7158 70.2825C70.7144 70.2825 70.9723 70.5404 70.9723 72.5539C70.9723 73.7887 70.9723 75.0286 70.9723 76.2089C73.8685 73.3325 76.7549 70.466 79.5073 67.7334C76.6606 64.8868 73.7892 62.0203 70.9723 59.1984C70.9723 60.4829 70.9723 61.8963 70.9723 63.3097C70.9723 64.5297 70.5359 64.9711 69.3258 64.9711C65.1401 64.9711 60.9545 64.9711 56.7688 64.9711C55.3753 64.9711 54.9835 64.5793 54.9835 63.2006C54.9835 61.817 54.9835 60.4333 54.9835 59.0596C52.0922 61.9509 49.2257 64.8124 46.4237 67.6144V67.6194Z" fill="#1166B4"/>
</g>
<g opacity="0.05" clip-path="url(#clip1_1540_2785)">
<path d="M55.3162 0C57.0964 0.263448 58.8847 0.486979 60.657 0.806309C71.4344 2.76221 80.647 7.70384 88.295 15.5115C95.4879 22.8561 100.094 31.5977 102.066 41.6966C103.407 48.5542 103.327 55.4038 101.906 62.2455C101.691 63.2913 101.164 64.0497 100.086 64.2812C99.2161 64.4728 98.3779 64.1854 98.0026 63.419C97.6913 62.7803 97.6035 61.9501 97.6753 61.2396C97.8909 59.1799 98.2501 57.1362 98.5216 55.0845C98.5774 54.6614 98.5295 54.2303 98.5295 53.6635C98.1463 53.6635 97.7871 53.6635 97.4358 53.6635C94.6577 53.6635 91.8715 53.6635 89.0933 53.6635C87.4807 53.6635 86.5068 52.8252 86.5068 51.484C86.5068 50.1508 87.4887 49.3046 89.0853 49.2966C91.8635 49.2966 94.6497 49.2966 97.4279 49.2966C97.7871 49.2966 98.1463 49.2966 98.6253 49.2966C98.0745 39.1898 94.7295 30.2805 88.6383 22.417C86.2673 23.3909 83.984 24.4208 81.629 25.267C79.2819 26.1132 76.863 26.7758 74.4041 27.5422C74.7554 29.1708 75.1306 30.8234 75.4579 32.4919C76.6634 38.5911 77.2222 44.7462 77.2222 50.9571C77.2222 52.3782 75.9848 53.5996 74.3882 53.6475C72.0092 53.7114 69.6301 53.6954 67.2511 53.6475C65.9099 53.6235 64.9679 52.6097 65.0158 51.4122C65.0637 50.1987 66.0297 49.3206 67.3869 49.3046C69.1591 49.2806 70.9314 49.3046 72.8394 49.3046C72.7676 42.1835 71.8255 35.262 70.1091 28.5801C64.6167 29.1389 59.212 29.6818 53.7275 30.2406V49.2407C54.6935 49.5281 55.5477 49.9592 55.7153 51.1008C55.7552 51.3962 55.7712 51.7155 55.6914 51.995C55.5876 52.3382 55.4199 52.8731 55.1884 52.921C53.6157 53.2882 53.5678 55.3399 52.043 55.6992C50.7338 56.0105 49.8796 55.4198 49.217 53.7193H30.0971C30.2088 55.803 30.1689 57.8866 30.4563 59.9223C31.071 64.2892 31.8214 68.64 32.5639 72.9829C32.9151 75.0426 31.8294 76.2162 29.8176 75.9368C30.0492 76.3918 30.4004 76.8548 30.5202 77.3737C30.8155 78.659 30.0252 79.5372 28.5483 80.0401C25.1075 81.1977 21.6907 82.4431 18.2659 83.6645C18.0264 83.7524 17.8188 83.912 17.3159 84.1914C19.5911 86.0994 21.6508 88.0154 23.8861 89.6839C28.8756 93.4041 34.4399 95.9667 40.5152 97.3878C40.7068 97.4357 40.8984 97.4995 41.098 97.5554C42.3673 97.9306 43.0459 98.9525 42.7904 100.11C42.535 101.284 41.3534 102.018 40.0761 101.715C38.7429 101.403 37.4017 101.084 36.1084 100.637C17.1642 94.0747 5.50862 80.9423 1.01404 61.4392C0.582949 59.5551 0.455216 57.6072 0.175802 55.6832C0.135886 55.4198 0.0560536 55.1643 -0.0078125 54.9088C-0.0078125 52.5618 -0.0078125 50.2147 -0.0078125 47.8676C0.223702 46.2151 0.399334 44.5546 0.686731 42.918C2.52288 32.404 7.12922 23.2792 14.5696 15.6312C22.2495 7.75973 31.5021 2.77817 42.3354 0.806309C44.1077 0.486979 45.8879 0.263448 47.6682 0C50.2149 0 52.7615 0 55.3082 0H55.3162ZM28.8357 75.5456C26.6563 68.4644 26.0815 61.1358 25.7222 53.7433H4.35903C4.94979 63.8421 8.35066 72.7674 14.5058 80.6628C19.168 78.2758 23.9579 76.5674 28.8357 75.5456ZM28.5323 27.7259C23.7344 26.0015 19.0323 24.309 14.2184 22.5767C8.25486 30.2885 4.90987 39.1978 4.36701 49.2168H25.7542C25.9378 41.8323 26.784 34.6154 28.5323 27.7259ZM49.2329 49.2647V30.2326C43.7404 29.6738 38.3358 29.1229 32.8593 28.5641C31.1349 35.27 30.2008 42.1835 30.129 49.2567H49.2329V49.2647ZM34.1685 24.0456C36.2042 24.8359 47.1174 25.9137 49.2569 25.5225V4.62231C49.0094 4.67021 48.8178 4.70214 48.6342 4.75802C46.2232 5.49248 44.2913 6.95342 42.5908 8.74965C38.4635 13.0925 36.1164 18.4254 34.1605 24.0456H34.1685ZM53.7435 4.60634V25.6422C58.8288 25.5784 63.8024 25.1233 68.8558 24.1414C68.1293 22.2893 67.5066 20.525 66.7562 18.8245C64.944 14.7291 62.7486 10.8732 59.4036 7.79964C57.791 6.31476 55.9947 5.13323 53.7435 4.60634ZM85.6206 18.9443C79.4735 12.6215 72.3365 8.31855 63.9461 6.09921C66.1095 8.582 67.9696 11.2404 69.3667 14.1862C70.7558 17.1001 71.9692 20.1098 73.3184 23.1914C77.4218 22.2573 81.5172 20.8842 85.6206 18.9443ZM38.9744 6.10719C30.592 8.33452 23.463 12.6455 17.3797 18.9443C21.4751 20.8762 25.5785 22.2653 29.8576 23.2313C31.9572 16.9325 34.6156 11.0887 38.9744 6.11518V6.10719Z" fill="url(#paint0_linear_1540_2785)"/>
<path d="M79.361 72.8231C79.361 72.4 79.361 72.0407 79.361 71.6815C79.361 68.6638 79.369 65.6461 79.361 62.6285C79.361 61.5747 79.6324 60.6806 80.6782 60.2495C81.756 59.8024 82.6022 60.2255 83.3766 61.0079C89.5796 67.2268 95.7985 73.4298 102.002 79.6408C103.375 81.0139 103.367 82.0517 101.986 83.4329C95.8065 89.6199 89.6115 95.7989 83.4325 101.994C82.6341 102.792 81.7719 103.263 80.6543 102.8C79.5446 102.337 79.361 101.371 79.361 100.309C79.369 97.2918 79.361 94.2741 79.361 91.2564C79.361 90.8972 79.361 90.5379 79.361 90.1388H62.2289C62.2289 90.53 62.2289 90.8812 62.2289 91.2405C62.2289 94.2581 62.2209 97.2758 62.2289 100.293C62.2289 101.403 62.0134 102.393 60.8558 102.84C59.7701 103.255 58.9398 102.784 58.1734 102.01C52.0024 95.8149 45.8074 89.6279 39.6203 83.4408C38.2312 82.0517 38.2153 81.0219 39.5724 79.6568C45.7994 73.4218 52.0343 67.1869 58.2772 60.96C59.5865 59.6587 61.3907 59.8343 61.9974 61.3352C62.181 61.7823 62.205 62.3171 62.213 62.8121C62.2289 65.7579 62.2209 68.7117 62.2209 71.6575C62.2209 72.0168 62.2209 72.384 62.2209 72.8231H79.353H79.361ZM44.1468 81.4849C48.7133 86.0274 53.3515 90.6337 57.9259 95.1842C57.9259 93.1485 57.9259 90.9371 57.9259 88.7337C57.9259 86.4266 58.5886 85.7719 60.9277 85.7719C67.2983 85.7719 73.6689 85.7719 80.0316 85.7719C83.2488 85.7719 83.664 86.1871 83.664 89.4283C83.664 91.4161 83.664 93.4119 83.664 95.3119C88.3262 90.6816 92.9724 86.0673 97.4032 81.6686C92.8208 77.0862 88.1985 72.4718 83.664 67.9294C83.664 69.997 83.664 72.2723 83.664 74.5475C83.664 76.5114 82.9614 77.2219 81.0135 77.2219C74.2757 77.2219 67.5378 77.2219 60.7999 77.2219C58.5566 77.2219 57.9259 76.5912 57.9259 74.3719C57.9259 72.1445 57.9259 69.9172 57.9259 67.7058C53.2717 72.3601 48.6574 76.9664 44.1468 81.4769V81.4849Z" fill="url(#paint1_linear_1540_2785)"/>
</g>
<defs>
<linearGradient id="paint0_linear_1540_2785" x1="124.862" y1="97.3578" x2="-61.344" y2="185.113" gradientUnits="userSpaceOnUse">
<stop offset="0.144005" stop-color="#1166B4"/>
<stop offset="0.425" stop-color="#1166B4" stop-opacity="0"/>
</linearGradient>
<linearGradient id="paint1_linear_1540_2785" x1="116.689" y1="101.128" x2="21.0576" y2="167.985" gradientUnits="userSpaceOnUse">
<stop offset="0.144005" stop-color="#1166B4"/>
<stop offset="0.425" stop-color="#1166B4" stop-opacity="0"/>
</linearGradient>
<clipPath id="clip0_1540_2785">
<rect width="64" height="63.9851" fill="white" transform="translate(19 17)"/>
</clipPath>
<clipPath id="clip1_1540_2785">
<rect width="103.024" height="103" fill="white"/>
</clipPath>
</defs>
</svg>
