<svg width="68" height="69" viewBox="0 0 68 69" fill="none" xmlns="http://www.w3.org/2000/svg">
<rect width="68" height="68.0576" rx="34" fill="#1166B4"/>
<path fill-rule="evenodd" clip-rule="evenodd" d="M20.8875 45.1826C18.0639 42.0842 16.3468 37.9942 16.3468 33.5094C16.3468 23.8391 24.3284 16 34.1738 16C44.0184 16 52 23.8391 52 33.5094C52 40.3474 48.0079 46.2669 42.1898 49.1497C38.5054 51.0674 34.4117 52.0651 30.2582 52.0575C24.9766 52.0575 20.0693 50.4787 16 47.7761C16 47.7761 18.7292 47.4782 20.8849 45.1817L20.8875 45.1826ZM42.5478 42.176C47.1606 37.565 47.1606 30.0882 42.5478 25.4754C40.4964 23.4182 37.7564 22.1929 34.8555 22.0353C34.7714 19.9346 35.902 18.5163 35.9072 18.5094V18.5086C32.5786 19.1504 29.5195 20.7771 27.1263 23.178C25.2782 25.0208 23.881 27.2659 23.0441 29.7379C23.1626 29.4237 23.2956 29.1129 23.4416 28.8073C23.2733 29.2365 23.1214 29.6744 22.984 30.1225C21.6336 34.2228 22.5865 38.9154 25.8471 42.176C30.4591 46.788 37.9359 46.788 42.5478 42.176Z" fill="white"/>
<path fill-rule="evenodd" clip-rule="evenodd" d="M28.2031 32.6126V35.0568C28.2031 35.5252 28.3892 35.9744 28.7204 36.3055C29.0515 36.6367 29.5007 36.8228 29.9691 36.8228C30.4374 36.8228 30.8866 36.6367 31.2178 36.3055C31.549 35.9744 31.735 35.5252 31.735 35.0568V32.6126C31.735 32.1443 31.549 31.6951 31.2178 31.3639C30.8866 31.0327 30.4374 30.8467 29.9691 30.8467C29.5007 30.8467 29.0515 31.0327 28.7204 31.3639C28.3892 31.6951 28.2031 32.1443 28.2031 32.6126ZM36.9454 32.6126V35.0568C36.9454 35.5252 37.1314 35.9744 37.4626 36.3055C37.7938 36.6367 38.243 36.8228 38.7113 36.8228C39.1797 36.8228 39.6289 36.6367 39.96 36.3055C40.2912 35.9744 40.4773 35.5252 40.4773 35.0568V32.6126C40.4773 32.1443 40.2912 31.6951 39.96 31.3639C39.6289 31.0327 39.1797 30.8467 38.7113 30.8467C38.243 30.8467 37.7938 31.0327 37.4626 31.3639C37.1314 31.6951 36.9454 32.1443 36.9454 32.6126Z" fill="white"/>
</svg>
